<svg width="18" height="18" viewBox="0 0 22 22" version="1.1" xmlns="http://www.w3.org/2000/svg" xmlns:xlink="http://www.w3.org/1999/xlink">
<title>gift</title>
<desc>Created using Figma</desc>
<g id="Canvas" transform="translate(-322 -611)">
<g id="gift">
<g id="Shape">
<use xlink:href="#path0_fill" transform="translate(324.578 611)" fill="#FFCC33"/>
</g>
<g id="Group">
<g id="Shape">
<use xlink:href="#path1_fill" transform="translate(327.156 613.578)" fill="#FE9923"/>
</g>
<g id="Shape">
<use xlink:href="#path2_fill" transform="translate(333.798 611)" fill="#FFCC33"/>
</g>
<g id="Shape">
<use xlink:href="#path3_fill" transform="translate(331.023 613.578)" fill="#10BB67"/>
</g>
</g>
<g id="Group">
<g id="Shape">
<use xlink:href="#path4_fill" transform="translate(333.645 613.578)" fill="#FE9923"/>
</g>
<g id="Shape">
<use xlink:href="#path5_fill" transform="translate(333 613.578)" fill="#0CA656"/>
</g>
</g>
<g id="Shape">
<use xlink:href="#path6_fill" transform="translate(323.289 620.023)" fill="#E50027"/>
</g>
<g id="Shape">
<use xlink:href="#path7_fill" transform="translate(333 620.023)" fill="#C1001F"/>
</g>
<g id="Shape">
<use xlink:href="#path8_fill" transform="translate(322 616.156)" fill="#FD003A"/>
</g>
<g id="Shape">
<use xlink:href="#path9_fill" transform="translate(333 616.156)" fill="#E50027"/>
</g>
<g id="Rectangle-path">
<use xlink:href="#path10_fill" transform="translate(329.734 616.156)" fill="#FEDB41"/>
</g>
<g id="Rectangle-path">
<use xlink:href="#path11_fill" transform="translate(333 616.156)" fill="#FFCC33"/>
</g>
<g id="Shape">
<use xlink:href="#path12_fill" transform="translate(332.355 616.156)" fill="#FEA832"/>
</g>
<g id="Shape">
<use xlink:href="#path13_fill" transform="translate(333 616.156)" fill="#FE9923"/>
</g>
<g id="Shape">
<use xlink:href="#path14_fill" transform="translate(332.355 630.422)" fill="#FEA832"/>
</g>
<g id="Shape">
<use xlink:href="#path15_fill" transform="translate(333 630.422)" fill="#FE9923"/>
</g>
</g>
</g>
<defs>
<path id="path0_fill" d="M 6.08528 1.74161C 5.52823 0.667176 4.43111 0 3.22266 0C 1.44577 0 0 1.44577 0 3.22266C 0 4.99954 1.44577 6.44531 3.22266 6.44531L 5.80078 6.44531L 7.62377 4.07614C 7.05538 3.43664 6.57181 2.68009 6.08528 1.74161Z"/>
<path id="path1_fill" d="M 4.51196 2.57797C 3.16876 2.57797 2.00473 1.92291 1.22133 0.356098C 1.06144 0.038258 0.675625 -0.0907771 0.356496 0.0678205C 0.038012 0.227063 -0.0910232 0.614168 0.068219 0.932653C 1.08576 2.96774 2.71054 3.86703 4.51196 3.86703C 4.86822 3.86703 5.19946 3.57875 5.19946 3.2225C 5.19946 2.86625 4.86822 2.57797 4.51196 2.57797Z"/>
<path id="path2_fill" d="M 4.40112 0C 3.19258 0 2.09554 0.667176 1.5385 1.74161C 1.05196 2.68009 0.568391 3.43664 0 4.07614L 1.82299 6.44531L 4.40112 6.44531C 6.178 6.44531 7.62377 4.99954 7.62377 3.22266C 7.62377 1.44577 6.178 0 4.40112 0Z"/>
<path id="path3_fill" d="M 1.97656 0C 0.906598 0 0 0.863629 0 1.93359C 0 3.00347 0.906598 3.86719 1.97656 3.86719C 3.04653 3.86719 3.95312 3.00347 3.95312 1.93359C 3.95312 0.863629 3.04653 0 1.97656 0Z"/>
<path id="path4_fill" d="M 4.84296 0.0678205C 4.52573 -0.0907771 4.13802 0.038258 3.97813 0.356098C 3.19967 1.91307 2.04162 2.57797 0.6875 2.57797C 0.331246 2.57797 0 2.86625 0 3.2225C 0 3.57875 0.331246 3.86703 0.6875 3.86703C 2.50031 3.86703 4.11825 2.95863 5.13124 0.932653C 5.29048 0.614168 5.16145 0.227063 4.84296 0.0678205Z"/>
<path id="path5_fill" d="M 1.97656 1.93359C 1.97656 3.00347 1.06996 3.86719 0 3.86719L 0 0C 1.06996 0 1.97656 0.863629 1.97656 1.93359Z"/>
<path id="path6_fill" d="M 19.4219 0L 19.4219 11.043C 19.4219 12.1128 18.5582 12.9766 17.4883 12.9766L 1.93359 12.9766C 0.863629 12.9766 0 12.1128 0 11.043L 0 0L 19.4219 0Z"/>
<path id="path7_fill" d="M 0 12.9766L 7.77734 12.9766C 8.84735 12.9766 9.71094 12.1128 9.71094 11.043L 9.71094 0L 0 0L 0 12.9766Z"/>
<path id="path8_fill" d="M 22 1.93359L 22 3.22266C 22 4.29254 21.1364 5.15625 20.0664 5.15625L 1.93359 5.15625C 0.863629 5.15625 0 4.29254 0 3.22266L 0 1.93359C 0 0.863629 0.863629 0 1.93359 0L 20.0664 0C 21.1364 0 22 0.863629 22 1.93359Z"/>
<path id="path9_fill" d="M 11 1.93359L 11 3.22266C 11 4.29254 10.1364 5.15625 9.06641 5.15625L 0 5.15625L 0 0L 9.06641 0C 10.1364 0 11 0.863629 11 1.93359Z"/>
<path id="path10_fill" d="M 0 0L 6.53125 0L 6.53125 16.8438L 0 16.8438L 0 0Z"/>
<path id="path11_fill" d="M 0 0L 3.26562 0L 3.26562 16.8438L 0 16.8438L 0 0Z"/>
<path id="path12_fill" d="M 1.28906 0L 1.28906 1.93359C 1.28906 2.29449 1.00551 2.57812 0.644531 2.57812C 0.283551 2.57812 0 2.29449 0 1.93359L 0 0L 1.28906 0Z"/>
<path id="path13_fill" d="M 0.644531 0L 0.644531 1.93359C 0.644531 2.29449 0.36098 2.57812 0 2.57812L 0 0L 0.644531 0Z"/>
<path id="path14_fill" d="M 1.28906 0.644531L 1.28906 2.57812L 0 2.57812L 0 0.644531C 0 0.283551 0.283551 0 0.644531 0C 1.00551 0 1.28906 0.283551 1.28906 0.644531Z"/>
<path id="path15_fill" d="M 0.644531 0.644531L 0.644531 2.57812L 0 2.57812L 0 0C 0.36098 0 0.644531 0.283551 0.644531 0.644531Z"/>
</defs>
</svg>
