<svg width="16px" height="16px" viewBox="0 0 16 16" version="1.1" xmlns="http://www.w3.org/2000/svg">
    <g stroke="none" stroke-width="1" fill="none" fill-rule="evenodd" transform="translate(-189.000000, -472.000000)">
        <g transform="translate(0.000000, 50.000000)" fill="#E33020" fill-rule="nonzero">
            <g transform="translate(44.000000, 411.000000)">
                <g transform="translate(126.000000, 0.000000)">
                    <g transform="translate(19.000000, 9.000000)">
                        <g transform="translate(0.000000, 2.000000)">
                            <path d="M8.02350517,9.13451055 L7.28976939,8.55157289 C7.06639516,8.36222574 6.76046958,8.11196971 6.76046958,7.65416007 C6.76046958,7.19436427 7.06623329,6.90206788 7.33136879,6.63128821 C8.18585615,5.94324965 9.04018164,5.21101904 9.04018164,3.66810456 C9.04018164,2.08149458 8.06397151,1.24681128 7.59585682,0.850738086 L8.85759748,0.850738086 L10.1818182,0 L6.16998467,0 C5.0691382,0 3.48253371,0.2661453 2.32098773,1.24681128 C1.44561973,2.01909609 1.01861885,3.0838428 1.01861885,4.04266104 C1.01861885,5.66982176 2.24037876,7.31949229 4.39836805,7.31949229 C4.60215657,7.31949229 4.8250452,7.29896865 5.04939062,7.27778295 C4.94854849,7.52853552 4.84673516,7.73741323 4.84673516,8.09161158 C4.84673516,8.73794081 5.17143712,9.13417952 5.45761512,9.50956356 C4.54097145,9.57411373 2.82940689,9.67805605 1.56750437,10.47103 C0.365815765,11.201771 0,12.2651936 0,13.0161272 C0,14.5610278 1.42441537,16 4.37764928,16 C7.87976871,16 9.73361294,14.0186409 9.73361294,12.0569779 C9.73393667,10.6158541 8.91975379,9.90662984 8.02350517,9.13451055 Z M5.35612552,6.7348995 C3.60409462,6.7348995 2.81046864,4.41903816 2.81046864,3.02177534 C2.81046864,2.47756778 2.91131078,1.91581583 3.2577027,1.47704021 C3.5845089,1.05928478 4.15330386,0.788174079 4.68438418,0.788174079 C6.37328759,0.788174079 7.24930304,3.12489009 7.24930304,4.62758485 C7.24930304,5.00346543 7.20867483,5.66965625 6.74039828,6.15146531 C6.41294461,6.48596758 5.86486842,6.7348995 5.35612552,6.7348995 Z M5.37619683,15.125759 C3.19748877,15.125759 1.79265912,14.0601848 1.79265912,12.5781791 C1.79265912,11.0970011 3.09535172,10.5956615 3.5433951,10.4299827 C4.39820618,10.1358657 5.49808146,10.0949839 5.68163681,10.0949839 C5.88526346,10.0949839 5.98707678,10.0949839 6.1492659,10.1158386 C7.69799388,11.2429838 8.37022082,11.8045702 8.37022082,12.8716341 C8.37038268,14.163465 7.33153065,15.125759 5.37619683,15.125759 Z" id="Shape"></path>
                            <polygon id="Shape" points="13.2257802 6.3954544 13.2257802 4.36363636 12.2185702 4.36363636 12.2185702 6.3954544 10.1818182 6.3954544 10.1818182 7.40999329 12.2185702 7.40999329 12.2185702 9.45454545 13.2257802 9.45454545 13.2257802 7.40999329 15.2727273 7.40999329 15.2727273 6.3954544"></polygon>
                        </g>
                    </g>
                </g>
            </g>
        </g>
    </g>
</svg>