<svg width="8px" height="16px" viewBox="0 0 8 16" version="1.1" xmlns="http://www.w3.org/2000/svg">
    <g stroke="none" stroke-width="1" fill="none" fill-rule="evenodd" transform="translate(-58.000000, -471.000000)">
        <g transform="translate(0.000000, 50.000000)" fill="#4661AF" fill-rule="nonzero">
            <g transform="translate(44.000000, 411.000000)">
                <g>
                    <g transform="translate(14.000000, 9.000000)">
                        <path d="M4.9614823,6.24264045 L4.9614823,4.86402018 C4.9614823,4.65706222 4.97100387,4.49675991 4.99035304,4.38352132 C5.00963421,4.27011271 5.05350141,4.1585744 5.12158058,4.04846433 C5.18955774,3.93842227 5.2996338,3.8624538 5.45163875,3.82035489 C5.60384773,3.77818797 5.80611293,3.75717252 6.05863837,3.75717252 L7.43719063,3.75717252 L7.43719063,1 L5.23332292,1 C3.95811363,1 3.04224131,1.30254766 2.48556994,1.90764297 C1.92896659,2.5128743 1.65069892,3.40436462 1.65069892,4.58245397 L1.65069892,6.24260644 L0,6.24260644 L0,8.999983 L1.6505969,8.999983 L1.6505969,17 L4.9614483,17 L4.9614483,9.000017 L7.16517999,9.000017 L7.45647179,6.24264045 L4.9614823,6.24264045 Z"></path>
                    </g>
                </g>
            </g>
        </g>
    </g>
</svg>