<svg width="13" height="20" viewBox="0 0 13 20" version="1.1" xmlns="http://www.w3.org/2000/svg" xmlns:xlink="http://www.w3.org/1999/xlink">
<title>power-icon</title>
<desc>Created using Figma</desc>
<g id="Canvas" transform="translate(-5405 -576)">
<g id="power-icon">
<g id="Vector">
<use xlink:href="#path0_fill" transform="translate(5405 576)" fill="#F2F2F2"/>
</g>
<g id="Vector">
<use xlink:href="#path1_fill" transform="translate(5405 576.001)" fill="#56CCF2"/>
</g>
</g>
</g>
<defs>
<path id="path0_fill" d="M 4.86724 19.8952L 12.9399 6.61218C 13.1226 6.31144 12.8634 5.94136 12.5028 5.98823L 7.13311 6.6857L 8.4161 0.248896C 8.45935 0.0319037 8.16659 -0.0924323 8.02704 0.0836225L 0.0898637 10.0957C -0.141334 10.3873 0.103476 10.802 0.484201 10.7637L 6.40428 10.1682L 4.4635 19.7505C 4.41669 19.9817 4.7435 20.0987 4.86724 19.8952Z"/>
<path id="path1_fill" d="M 2.57197 9.38555C 2.42371 9.39688 2.32524 9.24199 2.40405 9.12149L 8.33848 0.0478094C 8.25019 -0.0189485 8.11121 -0.0232454 8.02704 0.0829266L 0.0898637 10.095C -0.141335 10.3867 0.103476 10.8013 0.484201 10.763L 6.40428 10.1675L 4.4635 19.7498C 4.43734 19.8791 4.52857 19.97 4.63522 19.9918L 7.9609 9.93528C 8.11681 9.46391 7.72349 8.99168 7.20783 9.03113L 2.57197 9.38555Z"/>
</defs>
</svg>
