<?xml version="1.0" encoding="UTF-8"?>
<svg width="18px" height="18px" viewBox="0 0 18 18" version="1.1" xmlns="http://www.w3.org/2000/svg" xmlns:xlink="http://www.w3.org/1999/xlink">
    <!-- Generator: Sketch 48 (47235) - http://www.bohemiancoding.com/sketch -->
    <title>crop-tool</title>
    <desc>Created with Sketch.</desc>
    <defs></defs>
    <g id="Custom-Preset" stroke="none" stroke-width="1" fill="none" fill-rule="evenodd" transform="translate(-2.000000, -2.000000)">
        <g id="crop-tool" transform="translate(2.000000, 2.000000)" fill="#000000" fill-rule="nonzero">
            <path d="M16.1250984,0.336 C16.1250984,0.151152 15.9702295,0 15.7808361,0 L14.4679672,0 C14.2784754,0 14.1237049,0.151152 14.1237049,0.336 L14.1237049,0.814272 C14.1237049,0.999072 14.2784754,1.150272 14.4679672,1.150272 L15.7807869,1.150272 C15.9701803,1.150272 16.1250492,0.999072 16.1250492,0.814272 L16.1250984,0.336 Z" id="Shape"></path>
            <path d="M14.1236066,13.736112 C14.1236066,13.92096 13.9687377,14.072112 13.7793443,14.072112 L0.391032787,14.072112 C0.201688525,14.072112 0.0467704918,14.223264 0.0467704918,14.408112 L0.0467704918,15.689424 C0.0467704918,15.87432 0.201688525,16.025424 0.391032787,16.025424 C0.391032787,16.025424 12.8482623,16.025424 15.187377,16.025424 C15.8513115,16.025424 16.1249016,15.69504 16.1249016,15.015168 C16.1249016,14.77104 16.1249016,14.387232 16.1249016,14.387232 L16.1249016,5.065632 C16.1249016,4.880832 15.9701311,4.729632 15.7806393,4.729632 L14.4677705,4.729632 C14.2784262,4.729632 14.1235082,4.880832 14.1235082,5.065632 L14.1236066,13.736112 Z" id="Shape"></path>
            <path d="M1.91006557,17.65032 C1.91006557,17.835168 2.06498361,17.98632 2.25432787,17.98632 L3.56714754,17.98632 C3.7564918,17.98632 3.91140984,17.835168 3.91140984,17.65032 L3.91140984,17.172 C3.91140984,16.9872 3.7564918,16.836 3.56714754,16.836 L2.25432787,16.836 C2.06498361,16.836 1.91006557,16.9872 1.91006557,17.172 L1.91006557,17.65032 Z" id="Shape"></path>
            <path d="M2.9302623,1.9608 C2.13004918,1.9608 1.91011475,2.241072 1.91011475,2.955072 C1.91011475,5.530944 1.91011475,12.931296 1.91011475,12.931296 C1.91011475,13.116096 2.06503279,13.267296 2.25437705,13.267296 L3.56719672,13.267296 C3.75654098,13.267296 3.91145902,13.116096 3.91145902,12.931296 L3.91145902,4.25016 C3.91145902,4.065312 4.06637705,3.91416 4.25572131,3.91416 L17.644082,3.91416 C17.8334754,3.91416 17.9883443,3.763008 17.9883443,3.57816 L17.9883443,2.2968 C17.9883443,2.111952 17.8334754,1.9608 17.644082,1.9608 C17.6441311,1.9608 3.16485246,1.9608 2.9302623,1.9608 Z" id="Shape"></path>
        </g>
    </g>
</svg>