<?xml version="1.0" encoding="UTF-8"?>
<svg width="18px" height="18px" viewBox="0 0 18 18" version="1.1" xmlns="http://www.w3.org/2000/svg" xmlns:xlink="http://www.w3.org/1999/xlink">
    <!-- Generator: Sketch 48 (47235) - http://www.bohemiancoding.com/sketch -->
    <title>Group 2</title>
    <desc>Created with Sketch.</desc>
    <defs></defs>
    <g id="Custom-Preset" stroke="none" stroke-width="1" fill="none" fill-rule="evenodd" transform="translate(-3.000000, -2.000000)">
        <g id="Group-2" transform="translate(11.071068, 11.899495) rotate(45.000000) translate(-11.071068, -11.899495) translate(7.571068, 1.399495)">
            <path d="M0.5,13.5 L0.5,15 C0.5,15.8284271 1.17157288,16.5 2,16.5 L5,16.5 C5.82842712,16.5 6.5,15.8284271 6.5,15 L6.5,13.5 L0.5,13.5 Z" id="Rectangle-2" stroke="#000000"></path>
            <path d="M2,0 L5,0 C6.1045695,-2.02906125e-16 7,0.8954305 7,2 L7,12 L0,12 L0,2 C-1.3527075e-16,0.8954305 0.8954305,2.02906125e-16 2,0 Z" id="Rectangle" fill="#000000"></path>
            <path d="M2.11039965,17.6909639 L2.11601899,19.9380618 C2.11716383,20.3958705 2.48921922,20.7660698 2.94702795,20.7649249 C3.16615724,20.7643769 3.37615487,20.6770853 3.53110316,20.522137 L4.65042856,19.4028116 C4.83670908,19.2165311 4.94195807,18.9642684 4.94330864,18.7008315 L4.94844031,17.6998653 L2.11039965,17.6909639 Z" id="Path-2" fill="#000000"></path>
        </g>
    </g>
</svg>