<?xml version="1.0" encoding="UTF-8"?>
<svg width="16px" height="19px" viewBox="0 0 16 19" version="1.1" xmlns="http://www.w3.org/2000/svg" xmlns:xlink="http://www.w3.org/1999/xlink">
    <!-- Generator: Sketch 48 (47235) - http://www.bohemiancoding.com/sketch -->
    <title>reload</title>
    <desc>Created with Sketch.</desc>
    <defs></defs>
    <g id="Custom-Preset" stroke="none" stroke-width="1" fill="none" fill-rule="evenodd" transform="translate(-3.000000, -2.000000)">
        <g id="reload" transform="translate(11.000000, 11.180328) scale(-1, 1) translate(-11.000000, -11.180328) translate(3.000000, 2.000000)" fill="#000000" fill-rule="nonzero">
            <path d="M8.88711944,18.2917471 C12.5667447,17.8795691 15.5156909,14.9381171 15.935363,11.2584918 C16.4861827,6.44725059 12.7466042,2.35170023 8.05901639,2.29924122 L8.05901639,0.1409274 C8.05901639,0.0210210773 7.90913349,-0.0426791569 7.80796253,0.0322622951 L3.36393443,3.29596253 C3.28899297,3.35216862 3.28899297,3.46083372 3.36393443,3.51703981 L7.80796253,6.78074005 C7.90913349,6.8556815 8.05901639,6.78823419 8.05901639,6.67207494 L8.05901639,4.5175082 C11.3526932,4.56996721 13.9906323,7.37277752 13.765808,10.7226604 C13.5747073,13.6041593 11.2252927,15.9423326 8.34379391,16.1259391 C5.28992974,16.3207869 2.69320843,14.1399906 2.22857143,11.2547447 C2.14238876,10.7189133 1.67400468,10.3292178 1.13442623,10.3292178 C0.463700234,10.3292178 -0.0608899297,10.9250023 0.044028103,11.5882342 C0.696018735,15.6987728 4.49180328,18.7826136 8.88711944,18.2917471 Z" id="Shape"></path>
        </g>
    </g>
</svg>